<svg xmlns="http://www.w3.org/2000/svg" width="240" height="64" viewBox="0 0 240 64" role="img" aria-labelledby="title">
  <title id="title">Imajin</title>
  <rect width="240" height="64" rx="12" fill="#6365b9"/>
  <g fill="#ffffff">
    <path d="M29 20h7v24h-7zM44 28c0-5 3.5-8.7 8.4-8.7 2.6 0 4.9 1.1 6.2 3.1 1.7-2 4-3.1 6.9-3.1 5.2 0 8.8 3.5 8.8 9.3V44h-7V30.4c0-3.1-1.3-4.7-3.8-4.7-2.6 0-4.3 1.8-4.3 5V44h-7V30.4c0-3.1-1.3-4.7-3.8-4.7-2.6 0-4.3 1.8-4.3 5V44h-7V28z"/>
    <path d="M87.8 35.8c0-4.9 3.8-8.5 9-8.5 2.4 0 4.5.8 5.9 2.2v-1.7h6.6V44h-6.6v-1.8c-1.4 1.5-3.5 2.3-5.9 2.3-5.1 0-9-3.8-9-8.7zm14.8 0c0-2.2-1.7-3.9-4.1-3.9s-4.1 1.7-4.1 3.9 1.7 4 4.1 4 4.1-1.8 4.1-4z"/>
    <path d="M116.4 19.8h7V44h-7zM130.8 35.9c0-5 3.9-8.6 9.3-8.6 4.9 0 8.5 2.8 9.1 7h-6.6c-.4-1.2-1.4-2-2.9-2-2.2 0-3.9 1.5-3.9 3.6 0 2.2 1.7 3.7 3.9 3.7 1.5 0 2.5-.8 2.9-2h6.6c-.6 4.2-4.2 7-9.1 7-5.4 0-9.3-3.6-9.3-8.7z"/>
    <path d="M154.6 27.8h6.7V44h-6.7zm-.3-4.8c0-2 1.7-3.5 3.7-3.5 2.1 0 3.7 1.5 3.7 3.5s-1.6 3.5-3.7 3.5c-2 0-3.7-1.5-3.7-3.5z"/>
    <path d="M169.2 27.8h6.6v2.1c1.5-1.7 3.7-2.6 6.3-2.6 5.1 0 8.8 3.5 8.8 9.2V44h-7V37.2c0-2.8-1.6-4.6-4-4.6-2.6 0-4.7 1.9-4.7 5.2V44h-7V27.8z"/>
  </g>
</svg>


